<svg xmlns="http://www.w3.org/2000/svg" width="37" height="36" viewBox="0 0 37 36">
    <g fill="#50E3C2" fill-rule="evenodd">
        <path d="M11.365 6.748c0 .989-.79 1.78-1.778 1.78a1.771 1.771 0 0 1-1.777-1.78V2.002c0-.989.79-1.78 1.777-1.78.988 0 1.778.791 1.778 1.78v4.746zm17.383-4.746c0-.989-.79-1.78-1.778-1.78s-1.778.791-1.778 1.78v4.746c0 .989.79 1.78 1.778 1.78s1.778-.791 1.778-1.78V2.002zm7.506 4.509V33.84c0 1.068-.87 1.938-1.975 1.938H2.674c-1.106 0-1.976-.87-1.976-1.938V6.51c0-1.067.87-1.937 1.976-1.937h3.95v2.175c0 1.7 1.265 3.045 2.963 3.045 1.7 0 2.963-1.384 2.963-3.045V4.573h11.457v2.175c0 1.7 1.264 3.045 2.963 3.045s2.963-1.384 2.963-3.045V4.573h4.306c1.067 0 2.015.87 2.015 1.938zm-3.16 7.119c0-.396-.356-.752-.79-.752H4.648c-.435 0-.79.317-.79.752v18.272c0 .395.355.751.79.751h27.654c.435 0 .79-.316.79-.751V13.63z"/>
        <path stroke="#50E3C2" stroke-width=".5" d="M9.96 22.749a1.285 1.285 0 0 1 0-1.809 1.281 1.281 0 0 1 1.806 0l4.367 4.352 9.132-9.142a1.281 1.281 0 0 1 1.807 0 1.285 1.285 0 0 1 0 1.809l-10.939 10.97-6.173-6.18z"/>
    </g>
</svg>
