<svg xmlns="http://www.w3.org/2000/svg" xmlns:xlink="http://www.w3.org/1999/xlink" width="30" height="30" viewBox="0 0 30 30">
    <defs>
        <path id="prefix__a" d="M5.586 7L.636 2.05c-.39-.39-.39-1.023 0-1.414.39-.39 1.024-.39 1.414 0L7 5.586l4.95-4.95c.39-.39 1.023-.39 1.414 0 .39.39.39 1.024 0 1.414L8.414 7l4.95 4.95c.39.39.39 1.023 0 1.414-.39.39-1.024.39-1.414 0L7 8.414l-4.95 4.95c-.39.39-1.023.39-1.414 0-.39-.39-.39-1.024 0-1.414L5.586 7z"/>
    </defs>
    <g fill="none" fill-rule="evenodd" transform="translate(8 8)">
        <mask id="prefix__b" fill="#fff">
            <use xlink:href="#prefix__a"/>
        </mask>
        <g fill="#00C0AD" mask="url(#prefix__b)">
            <path d="M0 0L30 0 30 30 0 30z" transform="translate(-8 -8)"/>
        </g>
    </g>
</svg>
