<svg xmlns="http://www.w3.org/2000/svg" width="57" height="65" viewBox="0 0 57 65">
    <g fill="#50E3C2" fill-rule="evenodd">
        <path d="M36.01 13a7.68 7.68 0 0 1-.803-.042c-1.856-.196-3.522-1.054-4.684-2.414-1.166-1.358-1.69-3.057-1.477-4.782C29.452 2.478 32.436 0 35.99 0c.267 0 .54.014.804.044 3.835.406 6.597 3.632 6.16 7.195C42.55 10.524 39.566 13 36.01 13zM.741 58.614c2.4-3.964 4.503-7.999 6.537-11.897 2.035-3.908 4.14-7.944 6.57-11.962a4.34 4.34 0 0 1 .385-.538c.093-.227.197-.45.31-.665a306.96 306.96 0 0 1 6.786-12.167c-4.501-1.141-8.391.431-11.454 4.607-.907 1.231-2.045 1.909-3.205 1.909-1.076 0-2.025-.582-2.541-1.555-.699-1.32-.44-3.028.692-4.568 3.777-5.147 10.053-8.344 16.374-8.344 3.156 0 6.12.788 8.812 2.34.207.12.773.427 1.376.754.578.313 1.15.624 1.36.749 2.664 1.536 5.549 2.35 8.343 2.35 3.903 0 7.26-1.645 9.452-4.63C51.484 13.71 52.704 13 53.969 13c1.133 0 2.154.605 2.67 1.575.655 1.242.41 2.795-.67 4.264-4.362 5.943-10.026 9.082-16.378 9.082-1.765 0-3.568-.25-5.366-.747a287.74 287.74 0 0 0-6.859 12.19c3.25 1.663 6.367 3.755 9.271 6.214.872.742 1.37 1.652 1.438 2.638.069.995-.301 2.01-1.043 2.862-.357.713-.927 1.304-1.696 1.752-2.322 1.358-5.281 2.777-8.16 4.16-1.902.913-3.871 1.86-5.624 2.774-.809.419-1.622.63-2.426.63-1.773 0-3.266-1.058-3.716-2.637-.36-1.263 0-3.046 2.097-4.27a235.468 235.468 0 0 0 4.585-2.789l.07-.043c1.293-.798 2.626-1.622 3.755-2.296a33.981 33.981 0 0 0-7.032-3.352 4.89 4.89 0 0 1-.818-.363L6.992 62.933C6.186 64.266 5.022 65 3.72 65c-1.274 0-2.488-.721-3.172-1.88-.79-1.35-.723-2.99.194-4.506z"/>
    </g>
</svg>
