<svg xmlns="http://www.w3.org/2000/svg" xmlns:xlink="http://www.w3.org/1999/xlink" width="30" height="30" viewBox="0 0 30 30">
    <defs>
        <path id="a" d="M18.015 8.484a5149.662 5149.662 0 0 0-3.67.005h-.66l-.503.002-.152-.48-2-6.304-2.166 6.778H7.696L6.04 8.484H1.795l.078.055 5.647 4.134-.153.472-1.95 6.017a3.957 3.957 0 0 0-.108.306l.086-.063a7812.17 7812.17 0 0 0 4.12-3.041l1.093-.807.413-.305.41.31c.05.04.05.04.286.217a375.972 375.972 0 0 0 3.097 2.312l.148.11c.57.419 1.087.795 1.54 1.12.078.056.152.107.22.152a6.118 6.118 0 0 0-.11-.282l-2.093-6.51 5.73-4.198-2.234.001zM1.391 8.108a.126.126 0 0 0-.006-.013l.006.013zm9.512-6.76zm9.711 6.779a.181.181 0 0 0 .008-.013l-.008.013zM21.1 9.56l-4.97 3.642 1.764 5.5a4.841 4.841 0 0 1 .28.862c.136.644.076 1.16-.478 1.444-.529.271-1.134.043-1.993-.573a159.1 159.1 0 0 1-1.553-1.13l-.15-.11a337.178 337.178 0 0 1-2.988-2.23 179821.077 179821.077 0 0 1-4.8 3.543c-.815.601-1.417.813-1.942.463-.473-.316-.517-.8-.394-1.43.029-.147.068-.298.115-.452.058-.19.116-.348.14-.4l1.779-5.496L1.08 9.66a4.003 4.003 0 0 1-.46-.37 2.345 2.345 0 0 1-.412-.488C-.398 7.804.372 7.11 1.793 7.11h4.246l1.658.001h.165l1.935-6.056c.038-.13.105-.294.218-.466.23-.35.565-.59 1.016-.59.472 0 .817.259 1.043.632.111.183.174.357.195.45l1.917 6.035h.157a6481.08 6481.08 0 0 1 5.872-.006c1.343 0 2.113.608 1.65 1.586a1.98 1.98 0 0 1-.377.52 3.238 3.238 0 0 1-.385.341l-.409-.55.405.553z"/>
    </defs>
    <g fill="none" fill-rule="evenodd" transform="translate(4 4)">
        <mask id="b" fill="#fff">
            <use xlink:href="#a"/>
        </mask>
        <g fill="#36DCB6" mask="url(#b)">
            <path d="M-4-4h30v30H-4z"/>
        </g>
    </g>
</svg>
