<svg xmlns="http://www.w3.org/2000/svg" width="76" height="76" viewBox="0 0 76 76">
    <path fill="#36DCB6" fill-rule="evenodd" d="M35.3 26.924c0 4.668-6.3 8.307-6.3 14.769 0 4.908 5.187 8.082 7.013 8.288a.909.909 0 0 0 1.086-.904.938.938 0 0 0-.33-.717c-.82-.683-2.37-2.659-2.37-4.463 0-2.961 2.7-4.052 2.7-4.052-1.54 4.467 3.506 5.008 4.522 9.432A.91.91 0 0 0 42.5 50c.19 0 .375-.063.527-.177.017-.014.032-.024.049-.04.145-.096 3.925-2.658 3.925-8.09 0-2.218-1.082-6.027-1.86-7.715l-.002-.006a.901.901 0 0 0-.838-.586.909.909 0 0 0-.886.754c-.002.014-.415 1.896-1.814 2.936 0-4.348-3.062-8.84-4.676-10.7A.888.888 0 0 0 36.2 26c-.497.001-.9.414-.9.925z"/>
</svg>
