<svg xmlns="http://www.w3.org/2000/svg" width="56" height="40" viewBox="0 0 56 40">
    <path fill="#50E3C2" fill-rule="evenodd" d="M6.518 3.105A2.972 2.972 0 0 1 9.496.103h4.187a2.997 2.997 0 0 1 3.002 2.995v10.204h22.853v-10.3A3.005 3.005 0 0 1 42.548 0h3.66a3.009 3.009 0 0 1 3.01 3.001v10.3h3.076v3.001H56v6.686h-3.193v4.02h-3.522v9.883c0 1.66-1.351 3.006-3 3.006h-3.864c-1.656 0-3-1.334-3-3.006V26.5h-22.86v10.503A2.994 2.994 0 0 1 13.566 40H9.48a2.995 2.995 0 0 1-2.997-3.01V26.593H3.191v-3.3H0v-6.804h3.296v-3.3h3.302l-.08-10.083z"/>
</svg>
