<svg xmlns="http://www.w3.org/2000/svg" width="29" height="18" viewBox="0 0 29 18">
    <g fill="none" fill-rule="evenodd">
        <path fill="#36DCB6" d="M2.564 0h23.872c.892 0 1.215.093 1.54.267.327.174.583.43.757.756.174.326.267.65.267 1.54v12.873c0 .892-.093 1.215-.267 1.54-.174.327-.43.583-.756.757-.326.174-.65.267-1.54.267H2.563c-.892 0-1.215-.093-1.54-.267a1.817 1.817 0 0 1-.757-.756C.093 16.65 0 16.327 0 15.437V2.563c0-.892.093-1.215.267-1.54.174-.327.43-.583.756-.757C1.35.093 1.673 0 2.563 0z"/>
        <text fill="#FFF" font-family="SFProRounded-Regular, SF Pro Rounded" font-size="11">
            <tspan x="3.903" y="11.15">New</tspan>
        </text>
    </g>
</svg>
