<svg xmlns="http://www.w3.org/2000/svg" width="316" height="24" viewBox="0 0 316 24">
    <g fill="none" fill-rule="evenodd">
        <path fill="#000" d="M92.887 11.315c-2.954-.012-4.762 2.03-5.162 5.62l10.45.043c-.202-3.076-1.647-5.648-5.288-5.663zM74.9 7.539l4.576.02L72.55 19.25 79.377 31l-4.576-.019-4.555-7.84-4.62 7.803-4.576-.018L74.899 7.539zm18.156 0c6.45.026 9.545 5.168 9.52 11.19-.004.804-.093 1.525-.138 1.991l-15.024-.06c.46 4.282 2.92 6.117 5.69 6.128 1.906.007 3.423-.665 4.944-1.76l2.627 2.807c-1.999 1.857-4.383 2.91-7.847 2.895-5.325-.021-9.808-4.237-9.777-11.616.032-7.546 4.117-11.598 10.005-11.575zm23.045 0c1.813.007 3.63.015 4.9.027l-.005 4.175c-1.283-.015-2.33-.02-3.797-.026-3.343-.013-4.06 1.588-4.075 5.379l-.057 13.636-4.441-.04v-.188l.07-16.493c.023-5.69 5.162-6.479 7.405-6.47zM17.356 7l4.757 13.893 7.693-13.841 4.294.017-13 23.392-4.757-13.895L8.59 30.41l-1.715-4.55v-.002L17.355 7zm30.049 0c6.451.026 9.545 5.168 9.52 11.19-.003.804-.092 1.525-.136 1.991l-15.024-.06c.458 4.282 2.918 6.117 5.688 6.128 1.905.007 3.423-.665 4.942-1.76l2.63 2.807c-1.999 1.857-4.386 2.909-7.848 2.895-5.325-.022-9.808-4.237-9.777-11.616C37.432 11.03 41.517 6.977 47.405 7zM0 7l4.225.017 3.2 9.382-2.662 4.623L0 7zm46.964 3.775c-2.956-.012-4.765 2.031-5.164 5.62l10.45.043c-.199-3.076-1.646-5.647-5.286-5.663zM61.05 7l4.586.018 2.289 3.92-2.31 3.882L61.05 7z" transform="translate(0 -7)"/>
        <text fill="#36DCB6" font-family="DINAlternate-Bold, DIN Alternate" font-size="33" font-weight="bold" transform="translate(0 -7)">
            <tspan x="129" y="31">WEB PLAYER</tspan>
        </text>
    </g>
</svg>
