<svg xmlns="http://www.w3.org/2000/svg" xmlns:xlink="http://www.w3.org/1999/xlink" width="24" height="24" viewBox="0 0 24 24">
    <defs>
        <path id="prefix__a" d="M5.982 8.38c-1.386 0-2.514-1.115-2.514-2.485 0-1.37 1.128-2.485 2.514-2.485 1.387 0 2.515 1.115 2.515 2.485 0 1.37-1.128 2.484-2.515 2.484M6 0C2.686 0 0 2.61 0 5.83 0 9.043 5.934 16 6 16c0 0 6-6.949 6-10.17C12 2.61 9.314 0 6 0"/>
    </defs>
    <g fill="none" fill-rule="evenodd" transform="translate(6 4)">
        <mask id="prefix__b" fill="#fff">
            <use xlink:href="#prefix__a"/>
        </mask>
        <g fill="#36DCB6" mask="url(#prefix__b)">
            <path d="M0 0L24 0 24 24 0 24z" transform="translate(-6 -4)"/>
        </g>
    </g>
</svg>
