<svg xmlns="http://www.w3.org/2000/svg" xmlns:xlink="http://www.w3.org/1999/xlink" width="30" height="30" viewBox="0 0 30 30">
    <defs>
        <path id="a" d="M2.968 6.488A2.978 2.978 0 0 1 0 3.5 2.978 2.978 0 0 1 2.968.512 2.978 2.978 0 0 1 5.936 3.5a2.978 2.978 0 0 1-2.968 2.988zm0-1.635c.743 0 1.345-.605 1.345-1.353S3.71 2.147 2.968 2.147 1.624 2.752 1.624 3.5s.601 1.353 1.344 1.353zm8 1.635A2.978 2.978 0 0 1 8 3.5 2.978 2.978 0 0 1 10.968.512 2.978 2.978 0 0 1 13.936 3.5a2.978 2.978 0 0 1-2.968 2.988zm0-1.635c.743 0 1.345-.605 1.345-1.353s-.602-1.353-1.345-1.353-1.344.605-1.344 1.353.601 1.353 1.344 1.353zm8 1.635A2.978 2.978 0 0 1 16 3.5 2.978 2.978 0 0 1 18.968.512 2.978 2.978 0 0 1 21.936 3.5a2.978 2.978 0 0 1-2.968 2.988zm0-1.635c.743 0 1.345-.605 1.345-1.353s-.602-1.353-1.345-1.353-1.344.605-1.344 1.353.601 1.353 1.344 1.353z"/>
    </defs>
    <g fill="none" fill-rule="evenodd" transform="translate(4 11)">
        <mask id="b" fill="#fff">
            <use xlink:href="#a"/>
        </mask>
        <g fill="#00C0AD" mask="url(#b)">
            <path d="M-4-11h30v30H-4z"/>
        </g>
    </g>
</svg>
