<svg xmlns="http://www.w3.org/2000/svg" width="22" height="20" viewBox="0 0 22 20">
    <g fill="#CECECF" fill-rule="evenodd">
        <path d="M11.81 20a9.44 9.44 0 0 1-6.842-2.954l1.488-1.538c1.368 1.384 3.272 2.276 5.355 2.276 4.165 0 7.526-3.476 7.526-7.784s-3.361-7.785-7.526-7.785c-3.66 0-6.724 2.616-7.408 6.185l2.41-.37-3.422 4.954L0 8.031l2.26.338C2.976 3.6 6.962 0 11.81 0c5.326 0 9.67 4.462 9.67 10 0 5.508-4.344 10-9.67 10z"/>
        <path d="M15.752 6.952c1.285-.57 2.142 1.488.887 2.089l-3.977 1.645-.826 2.31c-.49 1.455-2.508.506-2.05-.791l.949-2.721c.122-.285.275-.507.52-.602l4.497-1.93z"/>
    </g>
</svg>
