<svg xmlns="http://www.w3.org/2000/svg" xmlns:xlink="http://www.w3.org/1999/xlink" width="37" height="37" viewBox="0 0 37 37">
    <defs>
        <path id="a" d="M9.17 5.902c1.094 0 1.982.888 1.982 1.976v17.515H7.188V7.878c0-1.042.801-1.895 1.833-1.97l.149-.006zm-6.938 5.616c1.095 0 1.982.889 1.982 1.988v11.887H.25V13.506a1.98 1.98 0 0 1 1.833-1.983l.15-.005zM16.438.286c1.094 0 1.982.893 1.982 1.99v23.117h-3.965V2.277c0-1.05.802-1.91 1.834-1.986l.148-.005z"/>
    </defs>
    <g fill="none" fill-rule="evenodd" transform="translate(9 5)">
        <mask id="b" fill="#fff">
            <use xlink:href="#a"/>
        </mask>
        <path fill="#50E3C2" d="M7.188 9.205c0-1.094.88-1.982 1.982-1.982 1.094 0 1.982.882 1.982 1.982v14.866H7.188V9.205zM.25 14.822c0-1.095.88-1.983 1.982-1.983 1.095 0 1.982.882 1.982 1.983v9.25H.25v-9.25zM14.455 3.581c0-1.09.88-1.974 1.982-1.974 1.095 0 1.983.88 1.983 1.974v20.49h-3.965V3.581z" mask="url(#b)"/>
        <g fill="#36DCB6" mask="url(#b)">
            <path d="M-7-4h33v33H-7z"/>
        </g>
    </g>
</svg>
