<svg xmlns="http://www.w3.org/2000/svg" width="19" height="20" viewBox="0 0 19 20">
    <path fill="#CECECF" fill-rule="evenodd" d="M16.876 4.854c.169.076.376.048.516-.087l.108-.105a.434.434 0 0 0 0-.627l-.78-.754a.47.47 0 0 0-.648 0l-.108.105a.433.433 0 0 0 0 .627l.024.023-.563.545a9.3 9.3 0 0 0-5.396-2.318v-.542h.081a.75.75 0 0 0 .763-.738V.737A.75.75 0 0 0 10.11 0H8.279a.75.75 0 0 0-.763.737v.246a.75.75 0 0 0 .763.738h.08v.54C3.868 2.649.269 6.182.015 10.622c-.28 4.894 3.611 9.094 8.674 9.364.172.01.343.014.514.014 4.875 0 8.904-3.689 9.173-8.398.132-2.327-.678-4.495-2.107-6.16l.608-.588zm-.485 6.641c-.218 3.821-3.596 6.785-7.594 6.573-3.968-.212-7.018-3.504-6.799-7.34.21-3.692 3.369-6.584 7.19-6.584.134 0 .268.004.404.011 3.968.212 7.018 3.505 6.799 7.34zm-5.736.153c0 .78-.654 1.411-1.46 1.411-.807 0-1.46-.631-1.46-1.411 0-.639.44-1.179 1.042-1.352V6.047a.41.41 0 0 1 .417-.403c.23 0 .418.18.418.403v4.25c.603.173 1.043.712 1.043 1.35z"/>
</svg>
