<svg xmlns="http://www.w3.org/2000/svg" xmlns:xlink="http://www.w3.org/1999/xlink" width="76" height="76" viewBox="0 0 76 76">
    <defs>
        <path id="prefix__a" d="M38.925 13.333l1.455-1.44c.405.186.9.116 1.234-.215l.26-.256c.427-.425.427-1.113 0-1.537L40.008 8.04c-.43-.425-1.124-.425-1.553 0l-.258.256c-.43.424-.43 1.112 0 1.537l.057.056-1.347 1.335c-3.447-3.152-7.924-5.231-12.912-5.679v-1.33h.195c1.009 0 1.825-.808 1.825-1.806v-.602C26.016.808 25.198 0 24.191 0h-4.382c-1.008 0-1.825.809-1.825 1.806v.603c0 .998.817 1.806 1.825 1.806h.194v1.323C9.253 6.49.64 15.146.033 26.024c-.668 11.99 8.642 22.28 20.755 22.943.412.022.821.033 1.23.033 11.664 0 21.305-9.037 21.948-20.576.318-5.7-1.621-11.011-5.041-15.091zm1.047 14.858c-.544 9.872-8.98 17.528-18.964 16.982-9.91-.548-17.527-9.055-16.98-18.966C4.554 16.671 12.44 9.2 21.984 9.2c.335 0 .669.01 1.008.028 9.91.547 17.527 9.055 16.98 18.963zM26 27.764C26 29.551 24.433 31 22.5 31S19 29.551 19 27.764c0-1.464 1.054-2.702 2.5-3.1v-9.74c0-.51.448-.924 1-.924s1 .415 1 .925v9.74c1.446.398 2.5 1.635 2.5 3.1z"/>
    </defs>
    <g fill="none" fill-rule="evenodd" transform="translate(16 12)">
        <mask id="prefix__b" fill="#fff">
            <use xlink:href="#prefix__a"/>
        </mask>
        <g fill="#36DCB6" mask="url(#prefix__b)">
            <path d="M0 0L76 0 76 76 0 76z" transform="translate(-16 -12)"/>
        </g>
    </g>
</svg>
